HIERARCHY
ROOT pelvis
{
  OFFSET 0 100 0
  CHANNELS 6 Xposition Yposition Zposition Zrotation Xrotation Yrotation
  JOINT pelvis_right_femur
  {
    OFFSET -10.78128 -3.44521 -0.5502486
    CHANNELS 3 Zrotation Xrotation Yrotation
    JOINT right_femur_tibia
    {
      OFFSET -0.8047443 -44.0398 -0.1307829
      CHANNELS 3 Zrotation Xrotation Yrotation
      JOINT right_tibia_foot
      {
        OFFSET 3.006224 -47.83518 -5
        CHANNELS 3 Zrotation Xrotation Yrotation
        End Site
        {
          OFFSET 0 -5 15
        }
      }
    }
  }
  JOINT pelvis_left_femur
  {
    OFFSET 10.78128 -3.44521 -0.5502486
    CHANNELS 3 Zrotation Xrotation Yrotation
    JOINT left_femur_tibia
    {
      OFFSET 0.8047443 -44.0398 -0.1307829
      CHANNELS 3 Zrotation Xrotation Yrotation
      JOINT left_tibia_foot
      {
        OFFSET -4.370144 -48.10324 -4.275266
        CHANNELS 3 Zrotation Xrotation Yrotation
        End Site
        {
          OFFSET 0 -5 15
        }
      }
    }
  }
  JOINT pelvis_spine1
  {
    OFFSET 0 6.468898 -3.129235
    CHANNELS 3 Zrotation Xrotation Yrotation
    JOINT spine1
    {
      OFFSET 0 23.15396 4.99043
      CHANNELS 3 Zrotation Xrotation Yrotation
      JOINT spine2
      {
        OFFSET 0 20.79997 -5.064912
        CHANNELS 3 Zrotation Xrotation Yrotation
        JOINT neck
        {
          OFFSET 0 14.38658 9.616178
          CHANNELS 3 Zrotation Xrotation Yrotation
          End Site
          {
            OFFSET 0 20 0
          }
        }
      }
      JOINT right_manubrium
      {
        OFFSET -5.722621 16.35077 3.967754
        CHANNELS 3 Zrotation Xrotation Yrotation
        JOINT right_clavicle
        {
          OFFSET -13.16364 1.694482 -4.693211
          CHANNELS 3 Zrotation Xrotation Yrotation
          JOINT right_humerus
          {
            OFFSET -28.5034 -0.3100689 -2.792744
            CHANNELS 3 Zrotation Xrotation Yrotation
            JOINT right_radius
            {
              OFFSET -25.15693 0.02248979 -1.271978
              CHANNELS 3 Zrotation Xrotation Yrotation
              End Site
              {
                OFFSET -15 0 0
              }
            }
          }
        }
      }
      JOINT left_manubrium
      {
        OFFSET 5.722621 16.35077 3.967754
        CHANNELS 3 Zrotation Xrotation Yrotation
        JOINT left_clavicle
        {
          OFFSET 13.16364 1.694482 -4.693211
          CHANNELS 3 Zrotation Xrotation Yrotation
          JOINT left_humerus
          {
            OFFSET 29.39168 -1.063119 -2.237045
            CHANNELS 3 Zrotation Xrotation Yrotation
            JOINT left_radius
            {
              OFFSET 24.59957 -0.9528479 0.9047498
              CHANNELS 3 Zrotation Xrotation Yrotation
              End Site
              {
                OFFSET 15 -0 -0
              }
            }
          }
        }
      }
    }
  }
}
MOTION
Frames: 21
Frame Time: 0.0416666666667
0 103.5113 0 2.178209 -1.213856 0.2886435 1.253602 -10.05396 8.760694 -0 34.80652 -0 -5.273464 -18.00475 -2.42167 -8.029805 10.09252 -23.51282 -0 5.127418 -0 7.696288 -16.13221 26.5907 -4.32891 -5.059478 4.935937 2.006944 9.217895 -7.751621 0.8331295 22.83459 7.170573 3.23879 -23.10168 8.815113 6.378545 -19.76834 11.57416 86.3047 35.94541 -19.77683 -0 0 16.27019 -7.577634 8.240193 4.617997 5.484124 -19.48197 -1.686623 -94.80448 29.74101 22.97612 0 0 -15.92854 3.489206 17.91277 9.568975
0.3250317 103.5601 1.346518 2.012346 -1.10449 0.4780703 1.543526 -11.02835 8.672885 -0 34.69277 -0 -5.324198 -17.66064 -2.459893 -7.865178 10.21306 -23.38694 -0 5.161887 -0 7.580068 -16.37481 26.43845 -4.255067 -4.870458 4.859116 2.092354 9.184617 -7.783329 0.8565001 22.75442 7.180214 3.247336 -23.24317 8.854993 6.372067 -19.72948 11.57555 86.2667 35.92023 -19.79795 -0 0 16.19451 -7.62185 8.267821 4.639493 5.553402 -19.53106 -1.668362 -94.73758 29.68445 22.88114 0 0 -16.14212 3.537245 17.84141 9.540788
0.6628083 103.5391 2.803455 1.773801 -0.8781143 0.5530493 1.922705 -12.51613 8.429653 -0 33.28221 -0 -5.369132 -17.004 -2.203567 -7.630848 10.34141 -23.13378 -0 5.250213 -0 7.377832 -16.76504 26.1811 -4.185274 -4.588541 4.808401 2.271966 9.112014 -7.799521 0.9117127 22.58487 7.18533 3.282625 -23.46242 8.902321 6.346209 -19.64823 11.58855 86.19748 35.87969 -19.85048 -0 0 16.04904 -7.694057 8.311895 4.664206 5.731244 -19.61644 -1.630321 -94.6127 29.59258 22.62559 0 0 -16.61411 3.640174 17.73745 9.445162
1.028328 103.3867 4.435282 1.513259 -0.491395 0.4913791 2.280598 -14.3965 7.988402 -0 29.99408 -0 -5.38048 -15.89259 -1.55507 -7.406853 10.46253 -22.71784 -0 5.446752 -0 7.086801 -17.3262 25.78951 -4.145107 -4.254424 4.841542 2.530464 8.998391 -7.7504 1.026994 22.31869 7.168159 3.359725 -23.73727 8.954536 6.268181 -19.47324 11.61603 86.1313 35.82058 -19.96933 -0 0 15.8128 -7.79395 8.375269 4.689301 6.037543 -19.76285 -1.556478 -94.40938 29.474 22.15375 0 0 -17.38982 3.794029 17.60406 9.259505
1.43322 103.0486 6.291614 1.297821 0.05357602 0.3231015 2.505454 -16.45608 7.359615 -0 24.80027 -0 -5.356062 -14.29663 -0.5471291 -7.262247 10.59185 -22.13482 -0 5.802072 -0 6.70268 -18.04748 25.21848 -4.14666 -3.935409 4.959664 2.810181 8.860658 -7.629956 1.186714 22.00498 7.131211 3.470482 -24.00757 9.00059 6.125952 -19.20417 11.63782 86.11109 35.74588 -20.15827 -0 0 15.48266 -7.91519 8.461666 4.716282 6.446425 -19.97783 -1.438508 -94.11399 29.33702 21.48211 0 0 -18.39105 3.974315 17.44237 9.007679
1.881856 102.4985 8.407811 1.185998 0.7194962 0.1185527 2.533011 -18.42637 6.578037 -0 18.13713 -0 -5.316509 -12.33656 0.6921584 -7.2329 10.76703 -21.39781 -0 6.372931 -0 6.203229 -18.8767 24.4105 -4.183756 -3.707541 5.105832 3.034941 8.723699 -7.484172 1.334962 21.72825 7.098599 3.58748 -24.19324 9.022793 5.930842 -18.88478 11.6168 86.18232 35.66382 -20.39799 -0 0 15.06763 -8.047154 8.57701 4.750507 6.894996 -20.24679 -1.287053 -93.72204 29.18725 20.68633 0 0 -19.44118 4.144632 17.25178 8.752003
2.364926 101.7553 10.86404 1.163857 1.469837 -0.03305 2.449319 -20.05342 5.655158 -0 10.85685 -0 -5.298861 -10.34828 1.960939 -7.296089 11.02124 -20.50787 -0 7.256211 -0 5.526563 -19.70271 23.33518 -4.214411 -3.604841 5.195258 3.169357 8.593064 -7.392048 1.421667 21.5321 7.101253 3.687311 -24.26002 9.017108 5.704906 -18.53349 11.53296 86.3915 35.58096 -20.69607 -0 0 14.5752 -8.180226 8.731062 4.79983 7.297101 -20.53354 -1.156953 -93.25627 29.03026 19.86788 0 0 -20.34224 4.271981 17.03322 8.559104
2.861269 100.8844 13.75817 1.16202 2.248664 -0.02118164 2.376248 -21.10012 4.676639 -0 4.025265 -0 -5.361516 -8.656077 3.081343 -7.354447 11.35068 -19.48018 -0 8.611539 -0 4.58806 -20.34682 21.96262 -4.163556 -3.623803 5.168581 3.221037 8.461128 -7.411682 1.427953 21.40855 7.147165 3.757866 -24.22642 8.979804 5.489658 -18.14828 11.39608 86.74683 35.50143 -21.06828 -0 0 14.00553 -8.314338 8.931755 4.869508 7.55008 -20.7901 -1.09424 -92.76587 28.86206 19.13903 0 0 -20.91875 4.332731 16.78183 8.473766
3.344015 100.0042 17.16801 1.078116 2.990686 0.2688463 2.418738 -21.30986 3.79879 0 -1.205112 0 -5.583587 -7.488053 3.911253 -7.255633 11.69317 -18.34691 -0 10.68652 -0 3.292644 -20.5314 20.25929 -3.931254 -3.745432 4.997487 3.222952 8.315082 -7.571516 1.357621 21.31584 7.22258 3.793336 -24.14259 8.901836 5.335185 -17.71864 11.23914 87.22074 35.42875 -21.52406 -0 0 13.35498 -8.460376 9.184483 4.963268 7.547486 -20.9572 -1.126738 -92.32227 28.66959 18.61955 0 0 -21.02331 4.3113 16.48673 8.521106
3.795218 99.28655 21.14477 0.8397914 3.674447 0.8430095 2.578802 -20.42867 3.13402 0 -4.155145 0 -6.019028 -6.821976 4.373139 -6.894008 11.8639 -17.14612 -0 13.81277 -0 1.591224 -19.84709 18.23531 -3.438024 -3.970688 4.695452 3.196851 8.153894 -7.854154 1.213699 21.2215 7.308745 3.78365 -24.03757 8.76936 5.248003 -17.24724 11.10202 87.76983 35.36788 -22.0329 -0 0 12.63863 -8.639872 9.489126 5.088289 7.255392 -20.97507 -1.264904 -92.00081 28.43748 18.39454 0 0 -20.61141 4.20741 16.14207 8.70445
4.215802 98.89232 25.68944 0.45512 4.188095 1.55739 2.855926 -18.40965 2.746041 0 -5.01784 0 -6.630789 -6.628576 4.524526 -6.334299 11.62443 -15.94971 -0 18.37931 -0 -0.4201924 -17.92571 16.0038 -2.683393 -4.261369 4.374868 3.14268 8.020674 -8.150496 1.003332 21.13501 7.383961 3.722221 -23.8895 8.566148 5.20706 -16.75197 11.04265 88.33329 35.32502 -22.5144 -0 0 11.90408 -8.877114 9.840788 5.256773 6.722321 -20.82126 -1.486163 -91.84877 28.15509 18.47547 0 0 -19.77284 4.032921 15.75186 8.994892
4.623527 98.91185 30.72526 0.03473177 4.319402 2.121476 3.231112 -15.35363 2.635003 0 -4.698177 0 -7.296963 -6.965152 4.531625 -5.785138 10.6584 -14.84237 -0 24.78487 -0 -2.487068 -14.57628 13.79274 -1.764712 -4.520381 4.243154 3.043503 8.000705 -8.271315 0.7420623 21.10813 7.42207 3.611254 -23.63862 8.274051 5.19109 -16.26694 11.13458 88.82789 35.30987 -22.84238 -0 0 11.22643 -9.200714 10.23168 5.486519 6.054723 -20.52298 -1.735567 -91.87138 27.81574 18.80375 0 0 -18.7064 3.809545 15.32949 9.33543
5.036846 99.33685 36.10155 -0.2088093 3.895117 2.244694 3.530816 -11.25142 2.646921 0 -4.174226 0 -7.875944 -7.955019 4.541937 -5.408401 8.558109 -13.81655 -0 33.01683 -0 -4.220756 -10.24155 11.93038 -0.92219 -4.616043 4.506228 2.881675 8.168898 -8.061246 0.46462 21.2098 7.394434 3.475255 -23.25365 7.883111 5.238405 -15.85148 11.41568 89.149 35.33529 -22.88054 -0 0 10.67758 -9.646488 10.65225 5.796477 5.355224 -20.18121 -1.94194 -91.98478 27.42178 19.26102 0 0 -17.63858 3.571992 14.89642 9.66
5.453879 100.0845 41.60592 -0.1218728 2.919278 1.879999 3.561188 -6.157933 2.632811 0 -4.100902 0 -8.258854 -9.53702 4.645059 -5.210556 5.065529 -12.81502 -0 42.30094 -0 -5.380957 -5.812225 10.68495 -0.3972071 -4.484556 5.213992 2.652019 8.508808 -7.5234 0.2293137 21.48103 7.271432 3.354227 -22.71722 7.401 5.358283 -15.61044 11.84354 89.1544 35.41133 -22.48954 -0 0 10.35335 -10.27324 11.08275 6.214697 4.708391 -19.8913 -2.064362 -92.08951 26.97586 19.73213 0 0 -16.75555 3.362101 14.46968 9.907363
5.863447 101.0239 47.00386 0.3581375 1.558071 1.336345 3.164818 -0.2660228 2.516731 0 -4.802337 0 -8.365424 -11.43626 4.887472 -5.074154 0.1215899 -11.78758 -0 51.12528 -0 -5.901093 -2.392695 10.22114 -0.3783283 -4.148903 6.262308 2.358202 8.918071 -6.799145 0.1038038 21.92194 7.029038 3.291029 -22.02174 6.851775 5.504568 -15.67829 12.30661 88.67954 35.53587 -21.53132 -0 0 10.38118 -11.16337 11.4921 6.778404 4.198226 -19.71556 -2.088798 -92.10116 26.48001 20.12672 0 0 -16.19256 3.221661 14.05837 10.02957
6.269301 102.0619 52.17074 1.194753 0.06125466 0.8449729 2.326111 6.017531 2.354242 0 -6.252296 0 -8.151841 -13.32409 5.268913 -4.918166 -6.019813 -10.84313 -0 57.80264 -0 -5.851376 -0.5562866 10.40479 -0.8635546 -3.682 7.469469 1.990632 9.293313 -6.013473 0.08724853 22.46362 6.693855 3.285359 -21.20436 6.273016 5.579239 -16.09191 12.69553 87.68873 35.67169 -19.97744 -0 0 10.85751 -12.36937 11.85144 7.505202 3.925186 -19.64564 -1.997254 -92.00029 25.94575 20.4279 0 0 -15.96714 3.156331 13.65983 10.03813
6.685898 103.0744 57.10706 2.242944 -1.336404 0.4746995 1.178957 12.27624 2.224902 0 -8.215901 0 -7.627506 -15.0188 5.759801 -4.660338 -12.85131 -9.992844 -0 61.16857 -0 -5.389543 -0.1369496 11.10759 -1.694571 -3.201314 8.645723 1.550219 9.568901 -5.256281 0.1398572 23.00711 6.32377 3.31226 -20.32829 5.713724 5.495003 -16.81587 12.94584 86.2379 35.7594 -17.88481 -0 0 11.83296 -13.89428 12.13913 8.398406 3.918891 -19.60843 -1.802988 -91.83677 25.39218 20.6946 0 0 -15.98253 3.13058 13.26557 9.981249
7.135395 103.8336 61.90757 3.239403 -2.434534 0.1932571 0.00463557 18.1275 2.156351 0 -10.31727 0 -6.852321 -16.51249 6.304334 -4.153063 -19.66143 -9.057543 -0 60.57073 -0 -4.760989 -0.3989883 12.30242 -2.588635 -2.845492 9.605839 1.062085 9.714651 -4.59282 0.2023761 23.43898 5.995378 3.333681 -19.47103 5.232898 5.196907 -17.76624 13.04047 84.44815 35.73287 -15.37592 -0 0 13.31257 -15.69089 12.34015 9.447665 4.124313 -19.49521 -1.557559 -91.70553 24.84485 21.02691 0 0 -16.06002 3.079552 12.86563 9.928379
7.64755 104.1179 66.66218 3.87909 -3.130252 -0.06100887 -0.8447372 23.27629 2.1069 0 -12.14323 0 -5.919782 -17.92115 6.832918 -3.204689 -25.75942 -7.744891 -0 55.86429 -0 -4.191443 -0.6877479 14.02738 -3.23694 -2.679315 10.24682 0.5980906 9.730934 -4.054361 0.2295768 23.67201 5.765809 3.318986 -18.6957 4.873727 4.716559 -18.83028 13.02127 82.49863 35.55188 -12.63344 -0 0 15.19533 -17.64266 12.44812 10.60249 4.436421 -19.27743 -1.324575 -91.65614 24.32893 21.43755 0 0 -16.05614 2.961888 12.45955 9.939711
8.254427 103.8106 71.4474 4.036339 -3.42854 -0.3319809 -1.204295 27.59393 2.021277 0 -13.36231 0 -4.904954 -19.32259 7.300898 -1.770667 -30.66827 -5.942837 -0 47.78675 -0 -3.756285 -0.7322469 16.10597 -3.498481 -2.708198 10.55812 0.2150815 9.654038 -3.661047 0.2079578 23.67749 5.655749 3.260971 -18.05159 4.652716 4.140451 -19.90859 12.92721 80.5683 35.20972 -9.866578 -0 0 17.30663 -19.62179 12.46938 11.7845 4.745091 -18.96472 -1.149935 -91.6946 23.86207 21.91237 0 0 -15.86553 2.764629 12.05252 10.05204
8.980864 102.9756 76.34702 3.804839 -3.433184 -0.6438594 -1.18777 31.10471 1.921469 0 -13.70141 0 -3.848992 -20.68338 7.697557 -0.1252365 -34.15599 -3.91658 -0 37.97491 -0 -3.360719 -0.6529312 18.09401 -3.435325 -2.895639 10.61949 -0.06570992 9.548197 -3.423337 0.1587134 23.48643 5.651324 3.179187 -17.57699 4.563838 3.592421 -20.92568 12.78174 78.81256 34.73148 -7.29906 -0 0 19.41511 -21.50892 12.4268 12.89758 4.941141 -18.58268 -1.060016 -91.79782 23.45707 22.4377 0 0 -15.40264 2.491237 11.65108 10.28581
